<svg xmlns="http://www.w3.org/2000/svg" width="235" height="117" viewBox="0 0 235 117">
  <g id="Page-2" fill="none" fill-rule="evenodd">
    <g id="Artboard" fill="#6488DA" transform="translate(-81 -114)">
      <g id="pole-position-logo" transform="translate(81 114)">
        <path id="Fill-1" fill-rule="nonzero" d="M112.9507,18.8668 C112.9787,16.7888 113.7787,15.1808 115.7757,14.2538 C116.0397,14.1318 116.1577,13.4658 116.1607,13.0498 C116.1887,9.1918 116.1777,5.3338 116.1777,1.4748 L116.1777,-0.0002 L118.7407,-0.0002 L118.7407,7.5948 C118.7407,8.8808 118.7777,10.1688 118.7307,11.4528 C118.6757,12.9518 118.5947,14.2678 120.3527,15.1268 C121.6867,15.7788 121.9447,17.3668 121.9527,18.8958 C130.0387,20.4928 136.3467,24.7018 140.6047,31.7598 C143.8817,37.1888 145.1187,43.1398 144.0987,49.3938 C141.8407,63.2588 130.4567,72.7078 116.5827,72.4268 C103.6977,72.1648 92.3237,61.8378 90.7237,49.0688 C88.9127,34.5988 98.7057,21.3738 112.9507,18.8668 Z M112.8627,40.9528 C112.8627,43.8728 112.8377,46.6068 112.9037,49.3398 C112.9107,49.5928 113.4947,50.0358 113.8187,50.0438 C116.2597,50.1028 118.7037,50.1068 121.1427,50.0338 C121.4567,50.0238 122.0087,49.4768 122.0177,49.1668 C122.0907,46.7268 122.0807,44.2838 122.0297,41.8428 C122.0237,41.5418 121.6317,40.9958 121.4087,40.9908 C118.5997,40.9318 115.7897,40.9528 112.8627,40.9528 Z M109.4527,41.1188 C107.0997,41.4568 104.8337,41.7568 102.5817,42.1408 C102.3047,42.1878 101.9117,42.6778 101.9017,42.9738 C101.8407,44.8778 101.8707,46.7858 101.8707,48.8238 C104.4747,49.1758 106.9337,49.5078 109.4527,49.8478 L109.4527,41.1188 Z M125.4737,49.8718 C128.0907,49.5018 130.5227,49.1568 133.0757,48.7958 C133.0757,46.8088 133.1037,44.9778 133.0507,43.1498 C133.0407,42.8068 132.7487,42.2148 132.5127,42.1738 C130.1867,41.7758 127.8467,41.4708 125.4737,41.1338 L125.4737,49.8718 Z M113.0717,53.4888 C113.4167,55.8058 113.7187,58.0398 114.1107,60.2588 C114.1687,60.5808 114.6457,61.0558 114.9487,61.0698 C116.6107,61.1498 118.2797,61.1418 119.9427,61.0778 C120.2427,61.0658 120.7377,60.6848 120.7857,60.4128 C121.1817,58.1278 121.4947,55.8298 121.8407,53.4888 L113.0717,53.4888 Z M113.0967,37.5178 L121.8157,37.5178 C121.4717,34.9618 121.1377,32.4908 120.7947,29.9488 L114.1267,29.9488 C113.7747,32.5358 113.4417,34.9778 113.0967,37.5178 Z M110.6087,30.3498 C108.6477,30.9888 106.9087,31.5458 105.1767,32.1258 C104.9017,32.2178 104.5057,32.3508 104.4277,32.5618 C103.7007,34.5198 103.0317,36.4988 102.2847,38.6468 C105.0297,38.3168 107.3487,38.0378 109.7087,37.7538 C110.0017,35.3458 110.2847,33.0218 110.6087,30.3498 Z M132.6237,38.6188 C131.9177,36.5518 131.2817,34.6718 130.6237,32.7998 C130.5607,32.6208 130.3877,32.4108 130.2177,32.3498 C128.3177,31.6838 126.4097,31.0438 124.3227,30.3358 C124.5967,32.7178 124.8647,34.7468 125.0497,36.7838 C125.1207,37.5718 125.4277,37.8708 126.2147,37.9358 C128.2127,38.1028 130.2047,38.3538 132.6237,38.6188 Z M102.2837,52.3388 C103.0027,54.4508 103.6357,56.3218 104.2817,58.1888 C104.3327,58.3358 104.4497,58.5248 104.5807,58.5708 C106.5047,59.2518 108.4357,59.9108 110.6127,60.6608 C110.2717,57.8818 109.9847,55.5398 109.7037,53.2408 C107.2557,52.9428 104.9457,52.6628 102.2837,52.3388 Z M124.3187,60.6448 C126.4347,59.9318 128.3057,59.3038 130.1727,58.6628 C130.3217,58.6118 130.5127,58.4928 130.5577,58.3608 C131.2337,56.4298 131.8877,54.4918 132.6227,52.3318 C129.8807,52.6718 127.5347,52.9628 125.1947,53.2538 C124.9107,55.6568 124.6367,57.9698 124.3187,60.6448 Z M114.8697,64.5498 C115.6807,66.2178 116.3997,67.6968 117.2037,69.3498 C118.9237,67.8918 119.2667,66.2138 119.8687,64.5498 L114.8697,64.5498 Z M136.5307,48.0208 C137.9407,47.3718 139.1847,46.8638 140.3647,46.2358 C141.2137,45.7838 141.1407,45.1338 140.3237,44.7128 C139.1337,44.0988 137.8907,43.5848 136.5307,42.9648 L136.5307,48.0208 Z M98.3847,42.9288 C96.9737,43.6038 95.7017,44.1698 94.4717,44.8168 C93.8207,45.1588 93.7807,45.7828 94.4077,46.1288 C95.6427,46.8098 96.9537,47.3568 98.3847,48.0298 L98.3847,42.9288 Z M115.0407,26.3378 L119.8877,26.3378 C119.4407,25.2408 119.1037,24.2728 118.6557,23.3598 C118.2687,22.5728 116.6257,22.5668 116.2497,23.3518 C115.7957,24.2998 115.4537,25.3028 115.0407,26.3378 Z M112.2097,67.9828 C112.3127,67.8768 112.4157,67.7718 112.5187,67.6658 C112.1907,66.6188 111.8867,65.5638 111.5187,64.5308 C111.4387,64.3038 111.1687,64.0458 110.9387,63.9878 C109.7487,63.6888 108.5437,63.4498 107.3437,63.1898 C107.2627,63.3008 107.1807,63.4118 107.0987,63.5228 C108.8027,65.0098 110.5067,66.4958 112.2097,67.9828 Z M127.7927,63.5448 C127.6877,63.4318 127.5837,63.3168 127.4777,63.2028 C126.3197,63.4568 125.1567,63.6908 124.0077,63.9828 C123.7707,64.0418 123.4797,64.2788 123.4017,64.4998 C123.0297,65.5638 122.7217,66.6508 122.3907,67.7298 C122.4897,67.8168 122.5887,67.9048 122.6867,67.9918 C124.3887,66.5098 126.0907,65.0278 127.7927,63.5448 Z M95.3127,50.4028 C95.1927,50.5048 95.0737,50.6068 94.9537,50.7088 C96.4287,52.4098 97.9017,54.1098 99.3767,55.8098 C99.5027,55.7288 99.6297,55.6478 99.7567,55.5678 C99.4597,54.2638 99.3997,52.8278 98.7717,51.7088 C98.4337,51.1068 97.1247,51.0498 96.2547,50.7448 C95.9387,50.6338 95.6267,50.5168 95.3127,50.4028 Z M139.9527,50.7028 C139.8617,50.6108 139.7707,50.5198 139.6807,50.4278 C138.5977,50.7538 137.5107,51.0628 136.4397,51.4218 C136.2447,51.4878 136.0227,51.7368 135.9737,51.9398 C135.6827,53.1438 135.4387,54.3588 135.1797,55.5708 C135.3057,55.6478 135.4327,55.7248 135.5597,55.8018 C137.0237,54.1018 138.4887,52.4028 139.9527,50.7028 Z M127.5207,27.7818 C126.1327,25.8108 124.6147,24.1698 122.3327,23.1788 C122.7157,24.3528 123.0077,25.3298 123.3607,26.2838 C123.4617,26.5568 123.7017,26.9108 123.9447,26.9768 C125.1247,27.2918 126.3267,27.5218 127.5207,27.7818 Z M112.6087,23.0698 C110.3357,24.3058 108.6507,25.7508 107.1717,27.8228 C108.5637,27.5308 109.6917,27.3318 110.7937,27.0368 C111.0897,26.9578 111.4267,26.6328 111.5387,26.3408 C111.9167,25.3618 112.2007,24.3468 112.6087,23.0698 Z M139.6147,40.5538 C139.7167,40.4348 139.8177,40.3158 139.9197,40.1968 C138.4647,38.5418 137.0087,36.8878 135.5537,35.2328 C135.4297,35.3208 135.3057,35.4098 135.1807,35.4978 C135.4377,36.6538 135.6747,37.8138 135.9687,38.9598 C136.0267,39.1878 136.2687,39.4618 136.4877,39.5408 C137.5187,39.9108 138.5707,40.2218 139.6147,40.5538 Z M94.9917,40.2628 C95.0827,40.3618 95.1737,40.4608 95.2637,40.5588 C96.3487,40.2198 97.4377,39.8898 98.5157,39.5268 C98.6827,39.4708 98.8857,39.2818 98.9247,39.1198 C99.2107,37.9128 99.4597,36.6978 99.7207,35.4858 C99.5817,35.4048 99.4427,35.3238 99.3047,35.2418 C97.8677,36.9158 96.4297,38.5888 94.9917,40.2628 Z M136.6497,31.9198 C135.1607,29.6018 132.4637,27.0128 131.0627,26.4668 C132.0527,29.0358 133.8637,30.9338 136.6497,31.9198 Z M103.6757,26.1108 C101.8237,27.9778 99.9727,29.8458 98.1217,31.7128 C101.0507,30.9278 102.8827,29.0458 103.6757,26.1108 Z M136.6817,59.4328 L136.4297,59.1798 C133.6067,60.3738 131.8977,62.1218 131.2697,64.8268 C133.0737,63.0288 134.8787,61.2308 136.6817,59.4328 Z M103.6717,64.8348 C102.8647,61.9838 101.1317,60.1038 98.4707,59.1878 L98.2217,59.4398 C100.0377,61.2388 101.8547,63.0368 103.6717,64.8348 Z M119.2947,18.5858 C119.2417,17.2358 118.4957,16.4148 117.4227,16.4358 C116.3217,16.4558 115.5967,17.3298 115.6807,18.5858 L119.2947,18.5858 Z"/>
        <path id="Fill-3" d="M143.6548,76.5006 C143.9168,74.9636 144.0948,73.6596 144.3738,72.3776 C144.5518,71.5506 144.4628,70.9306 143.7758,70.3386 C142.7538,69.4556 141.8248,68.4636 140.6768,67.3436 C142.4058,67.0646 143.8758,66.8756 145.3178,66.5646 C145.7338,66.4746 146.2158,66.1126 146.4248,65.7396 C147.1448,64.4536 147.7598,63.1086 148.4968,61.6166 C149.1628,62.9626 149.8278,64.1116 150.3048,65.3356 C150.6688,66.2656 151.2538,66.6306 152.1868,66.7306 C153.4928,66.8686 154.7888,67.0926 156.2238,67.2996 C155.0828,68.4556 154.0218,69.4386 153.0858,70.5266 C152.7598,70.9056 152.5638,71.5656 152.6128,72.0666 C152.7488,73.4566 153.0438,74.8296 153.3218,76.4876 C151.8148,75.7136 150.5188,75.1086 149.2888,74.3916 C148.6818,74.0376 148.2498,74.0746 147.6618,74.4126 C146.4228,75.1256 145.1278,75.7416 143.6548,76.5006"/>
        <path id="Fill-5" d="M91.8208,76.4923 C90.3058,75.7093 89.0508,74.9993 87.7388,74.4163 C87.3218,74.2313 86.6828,74.2283 86.2668,74.4133 C84.9518,75.0003 83.6928,75.7153 82.1828,76.5003 C82.4258,74.9983 82.5498,73.7003 82.8648,72.4503 C83.1088,71.4853 82.8818,70.8453 82.1578,70.2063 C81.2048,69.3633 80.3408,68.4193 79.2568,67.3373 C80.8908,67.0733 82.3448,66.8933 83.7678,66.5743 C84.2188,66.4733 84.7398,66.0873 84.9678,65.6843 C85.6768,64.4253 86.2628,63.0963 86.9838,61.6143 C87.6838,63.0153 88.3538,64.2353 88.9068,65.5073 C89.2358,66.2653 89.7018,66.6083 90.5148,66.6933 C91.8688,66.8343 93.2118,67.0763 94.5908,67.2803 C93.5578,68.3843 92.6238,69.4603 91.5998,70.4453 C91.0748,70.9513 90.9138,71.3973 91.0778,72.1223 C91.3828,73.4803 91.5528,74.8683 91.8208,76.4923"/>
        <path id="Fill-7" d="M90.1479,19.0265 C89.3729,19.6965 88.9129,20.2215 88.3409,20.5605 C87.1069,21.2915 87.0979,22.3265 87.3999,23.5215 C87.5439,24.0915 87.5969,24.6845 87.7409,25.5715 C86.8169,25.1125 86.0889,24.8215 85.4399,24.4095 C84.6379,23.9015 83.9219,23.8465 83.1109,24.3905 C82.4839,24.8105 81.7789,25.1135 80.8269,25.6185 C80.9749,24.5315 81.0109,23.7005 81.2169,22.9145 C81.4429,22.0535 81.2079,21.4665 80.5509,20.9125 C79.9069,20.3675 79.3409,19.7285 78.6019,18.9915 C79.9889,18.7605 81.4369,18.9045 82.3229,18.2665 C83.2229,17.6185 83.5689,16.2005 84.2739,14.9075 C84.7119,15.7535 85.1539,16.4585 85.4489,17.2205 C85.7779,18.0695 86.2719,18.5165 87.2149,18.5665 C88.0479,18.6095 88.8729,18.8185 90.1479,19.0265"/>
        <path id="Fill-9" d="M151.3706,14.5905 C152.0116,17.7965 153.7336,19.2015 156.7906,18.7685 C156.8376,18.9325 156.8846,19.0975 156.9316,19.2625 C156.3886,19.6995 155.8716,20.1735 155.2976,20.5655 C154.1596,21.3415 154.0486,22.3625 154.4086,23.5835 C154.5876,24.1895 154.6176,24.8395 154.7166,25.4765 C154.6006,25.4855 154.5046,25.5225 154.4616,25.4905 C152.2926,23.8625 150.1126,23.5485 147.9056,25.7845 C147.8686,25.6595 147.8316,25.5355 147.7956,25.4105 C147.9656,24.2005 148.5186,22.8725 148.1946,21.8135 C147.8846,20.7945 146.6646,20.0535 145.6666,19.0045 C146.6466,18.8295 147.4796,18.5895 148.3206,18.5555 C149.2366,18.5195 149.6846,18.0765 150.0136,17.2945 C150.3396,16.5145 150.7666,15.7775 151.3706,14.5905"/>
        <path id="Fill-11" d="M154.0864,38.5905 C154.5784,37.5045 154.2644,36.3415 152.8354,35.3815 C154.4904,35.3765 155.5164,34.6865 155.9144,32.8325 C156.6324,34.3375 157.1754,35.7005 159.1464,35.2245 C158.0114,36.3745 157.1874,37.4165 157.8564,38.5905 L154.0864,38.5905 Z"/>
        <path id="Fill-13" d="M76.021,51.1642 C77.625,51.1262 78.64,50.4702 79.11,48.8662 C79.669,50.3722 80.631,51.1532 82.26,51.1502 C80.876,52.0872 80.582,53.2672 81.086,54.8022 C79.778,53.9082 78.57,53.7142 77.247,54.8142 C77.608,53.3052 77.515,52.0612 76.021,51.1642"/>
      </g>
    </g>
  </g>
</svg>
