<svg xmlns="http://www.w3.org/2000/svg" width="235" height="117" viewBox="0 0 235 117">
  <g id="Page-2" fill="none" fill-rule="evenodd">
    <g id="Artboard" fill="#6488DA" transform="translate(-81 -114)">
      <g id="pole-position-logo" transform="translate(81 114)">
        <path id="Fill-1" fill-rule="nonzero" d="M112.9507,18.8668 C112.9787,16.7888 113.7787,15.1808 115.7757,14.2538 C116.0397,14.1318 116.1577,13.4658 116.1607,13.0498 C116.1887,9.1918 116.1777,5.3338 116.1777,1.4748 L116.1777,-0.0002 L118.7407,-0.0002 L118.7407,7.5948 C118.7407,8.8808 118.7777,10.1688 118.7307,11.4528 C118.6757,12.9518 118.5947,14.2678 120.3527,15.1268 C121.6867,15.7788 121.9447,17.3668 121.9527,18.8958 C130.0387,20.4928 136.3467,24.7018 140.6047,31.7598 C143.8817,37.1888 145.1187,43.1398 144.0987,49.3938 C141.8407,63.2588 130.4567,72.7078 116.5827,72.4268 C103.6977,72.1648 92.3237,61.8378 90.7237,49.0688 C88.9127,34.5988 98.7057,21.3738 112.9507,18.8668 Z M112.8627,40.9528 C112.8627,43.8728 112.8377,46.6068 112.9037,49.3398 C112.9107,49.5928 113.4947,50.0358 113.8187,50.0438 C116.2597,50.1028 118.7037,50.1068 121.1427,50.0338 C121.4567,50.0238 122.0087,49.4768 122.0177,49.1668 C122.0907,46.7268 122.0807,44.2838 122.0297,41.8428 C122.0237,41.5418 121.6317,40.9958 121.4087,40.9908 C118.5997,40.9318 115.7897,40.9528 112.8627,40.9528 Z M109.4527,41.1188 C107.0997,41.4568 104.8337,41.7568 102.5817,42.1408 C102.3047,42.1878 101.9117,42.6778 101.9017,42.9738 C101.8407,44.8778 101.8707,46.7858 101.8707,48.8238 C104.4747,49.1758 106.9337,49.5078 109.4527,49.8478 L109.4527,41.1188 Z M125.4737,49.8718 C128.0907,49.5018 130.5227,49.1568 133.0757,48.7958 C133.0757,46.8088 133.1037,44.9778 133.0507,43.1498 C133.0407,42.8068 132.7487,42.2148 132.5127,42.1738 C130.1867,41.7758 127.8467,41.4708 125.4737,41.1338 L125.4737,49.8718 Z M113.0717,53.4888 C113.4167,55.8058 113.7187,58.0398 114.1107,60.2588 C114.1687,60.5808 114.6457,61.0558 114.9487,61.0698 C116.6107,61.1498 118.2797,61.1418 119.9427,61.0778 C120.2427,61.0658 120.7377,60.6848 120.7857,60.4128 C121.1817,58.1278 121.4947,55.8298 121.8407,53.4888 L113.0717,53.4888 Z M113.0967,37.5178 L121.8157,37.5178 C121.4717,34.9618 121.1377,32.4908 120.7947,29.9488 L114.1267,29.9488 C113.7747,32.5358 113.4417,34.9778 113.0967,37.5178 Z M110.6087,30.3498 C108.6477,30.9888 106.9087,31.5458 105.1767,32.1258 C104.9017,32.2178 104.5057,32.3508 104.4277,32.5618 C103.7007,34.5198 103.0317,36.4988 102.2847,38.6468 C105.0297,38.3168 107.3487,38.0378 109.7087,37.7538 C110.0017,35.3458 110.2847,33.0218 110.6087,30.3498 Z M132.6237,38.6188 C131.9177,36.5518 131.2817,34.6718 130.6237,32.7998 C130.5607,32.6208 130.3877,32.4108 130.2177,32.3498 C128.3177,31.6838 126.4097,31.0438 124.3227,30.3358 C124.5967,32.7178 124.8647,34.7468 125.0497,36.7838 C125.1207,37.5718 125.4277,37.8708 126.2147,37.9358 C128.2127,38.1028 130.2047,38.3538 132.6237,38.6188 Z M102.2837,52.3388 C103.0027,54.4508 103.6357,56.3218 104.2817,58.1888 C104.3327,58.3358 104.4497,58.5248 104.5807,58.5708 C106.5047,59.2518 108.4357,59.9108 110.6127,60.6608 C110.2717,57.8818 109.9847,55.5398 109.7037,53.2408 C107.2557,52.9428 104.9457,52.6628 102.2837,52.3388 Z M124.3187,60.6448 C126.4347,59.9318 128.3057,59.3038 130.1727,58.6628 C130.3217,58.6118 130.5127,58.4928 130.5577,58.3608 C131.2337,56.4298 131.8877,54.4918 132.6227,52.3318 C129.8807,52.6718 127.5347,52.9628 125.1947,53.2538 C124.9107,55.6568 124.6367,57.9698 124.3187,60.6448 Z M114.8697,64.5498 C115.6807,66.2178 116.3997,67.6968 117.2037,69.3498 C118.9237,67.8918 119.2667,66.2138 119.8687,64.5498 L114.8697,64.5498 Z M136.5307,48.0208 C137.9407,47.3718 139.1847,46.8638 140.3647,46.2358 C141.2137,45.7838 141.1407,45.1338 140.3237,44.7128 C139.1337,44.0988 137.8907,43.5848 136.5307,42.9648 L136.5307,48.0208 Z M98.3847,42.9288 C96.9737,43.6038 95.7017,44.1698 94.4717,44.8168 C93.8207,45.1588 93.7807,45.7828 94.4077,46.1288 C95.6427,46.8098 96.9537,47.3568 98.3847,48.0298 L98.3847,42.9288 Z M115.0407,26.3378 L119.8877,26.3378 C119.4407,25.2408 119.1037,24.2728 118.6557,23.3598 C118.2687,22.5728 116.6257,22.5668 116.2497,23.3518 C115.7957,24.2998 115.4537,25.3028 115.0407,26.3378 Z M112.2097,67.9828 C112.3127,67.8768 112.4157,67.7718 112.5187,67.6658 C112.1907,66.6188 111.8867,65.5638 111.5187,64.5308 C111.4387,64.3038 111.1687,64.0458 110.9387,63.9878 C109.7487,63.6888 108.5437,63.4498 107.3437,63.1898 C107.2627,63.3008 107.1807,63.4118 107.0987,63.5228 C108.8027,65.0098 110.5067,66.4958 112.2097,67.9828 Z M127.7927,63.5448 C127.6877,63.4318 127.5837,63.3168 127.4777,63.2028 C126.3197,63.4568 125.1567,63.6908 124.0077,63.9828 C123.7707,64.0418 123.4797,64.2788 123.4017,64.4998 C123.0297,65.5638 122.7217,66.6508 122.3907,67.7298 C122.4897,67.8168 122.5887,67.9048 122.6867,67.9918 C124.3887,66.5098 126.0907,65.0278 127.7927,63.5448 Z M95.3127,50.4028 C95.1927,50.5048 95.0737,50.6068 94.9537,50.7088 C96.4287,52.4098 97.9017,54.1098 99.3767,55.8098 C99.5027,55.7288 99.6297,55.6478 99.7567,55.5678 C99.4597,54.2638 99.3997,52.8278 98.7717,51.7088 C98.4337,51.1068 97.1247,51.0498 96.2547,50.7448 C95.9387,50.6338 95.6267,50.5168 95.3127,50.4028 Z M139.9527,50.7028 C139.8617,50.6108 139.7707,50.5198 139.6807,50.4278 C138.5977,50.7538 137.5107,51.0628 136.4397,51.4218 C136.2447,51.4878 136.0227,51.7368 135.9737,51.9398 C135.6827,53.1438 135.4387,54.3588 135.1797,55.5708 C135.3057,55.6478 135.4327,55.7248 135.5597,55.8018 C137.0237,54.1018 138.4887,52.4028 139.9527,50.7028 Z M127.5207,27.7818 C126.1327,25.8108 124.6147,24.1698 122.3327,23.1788 C122.7157,24.3528 123.0077,25.3298 123.3607,26.2838 C123.4617,26.5568 123.7017,26.9108 123.9447,26.9768 C125.1247,27.2918 126.3267,27.5218 127.5207,27.7818 Z M112.6087,23.0698 C110.3357,24.3058 108.6507,25.7508 107.1717,27.8228 C108.5637,27.5308 109.6917,27.3318 110.7937,27.0368 C111.0897,26.9578 111.4267,26.6328 111.5387,26.3408 C111.9167,25.3618 112.2007,24.3468 112.6087,23.0698 Z M139.6147,40.5538 C139.7167,40.4348 139.8177,40.3158 139.9197,40.1968 C138.4647,38.5418 137.0087,36.8878 135.5537,35.2328 C135.4297,35.3208 135.3057,35.4098 135.1807,35.4978 C135.4377,36.6538 135.6747,37.8138 135.9687,38.9598 C136.0267,39.1878 136.2687,39.4618 136.4877,39.5408 C137.5187,39.9108 138.5707,40.2218 139.6147,40.5538 Z M94.9917,40.2628 C95.0827,40.3618 95.1737,40.4608 95.2637,40.5588 C96.3487,40.2198 97.4377,39.8898 98.5157,39.5268 C98.6827,39.4708 98.8857,39.2818 98.9247,39.1198 C99.2107,37.9128 99.4597,36.6978 99.7207,35.4858 C99.5817,35.4048 99.4427,35.3238 99.3047,35.2418 C97.8677,36.9158 96.4297,38.5888 94.9917,40.2628 Z M136.6497,31.9198 C135.1607,29.6018 132.4637,27.0128 131.0627,26.4668 C132.0527,29.0358 133.8637,30.9338 136.6497,31.9198 Z M103.6757,26.1108 C101.8237,27.9778 99.9727,29.8458 98.1217,31.7128 C101.0507,30.9278 102.8827,29.0458 103.6757,26.1108 Z M136.6817,59.4328 L136.4297,59.1798 C133.6067,60.3738 131.8977,62.1218 131.2697,64.8268 C133.0737,63.0288 134.8787,61.2308 136.6817,59.4328 Z M103.6717,64.8348 C102.8647,61.9838 101.1317,60.1038 98.4707,59.1878 L98.2217,59.4398 C100.0377,61.2388 101.8547,63.0368 103.6717,64.8348 Z M119.2947,18.5858 C119.2417,17.2358 118.4957,16.4148 117.4227,16.4358 C116.3217,16.4558 115.5967,17.3298 115.6807,18.5858 L119.2947,18.5858 Z"/>
        <path id="Fill-3" d="M143.6548,76.5006 C143.9168,74.9636 144.0948,73.6596 144.3738,72.3776 C144.5518,71.5506 144.4628,70.9306 143.7758,70.3386 C142.7538,69.4556 141.8248,68.4636 140.6768,67.3436 C142.4058,67.0646 143.8758,66.8756 145.3178,66.5646 C145.7338,66.4746 146.2158,66.1126 146.4248,65.7396 C147.1448,64.4536 147.7598,63.1086 148.4968,61.6166 C149.1628,62.9626 149.8278,64.1116 150.3048,65.3356 C150.6688,66.2656 151.2538,66.6306 152.1868,66.7306 C153.4928,66.8686 154.7888,67.0926 156.2238,67.2996 C155.0828,68.4556 154.0218,69.4386 153.0858,70.5266 C152.7598,70.9056 152.5638,71.5656 152.6128,72.0666 C152.7488,73.4566 153.0438,74.8296 153.3218,76.4876 C151.8148,75.7136 150.5188,75.1086 149.2888,74.3916 C148.6818,74.0376 148.2498,74.0746 147.6618,74.4126 C146.4228,75.1256 145.1278,75.7416 143.6548,76.5006"/>
        <path id="Fill-5" d="M91.8208,76.4923 C90.3058,75.7093 89.0508,74.9993 87.7388,74.4163 C87.3218,74.2313 86.6828,74.2283 86.2668,74.4133 C84.9518,75.0003 83.6928,75.7153 82.1828,76.5003 C82.4258,74.9983 82.5498,73.7003 82.8648,72.4503 C83.1088,71.4853 82.8818,70.8453 82.1578,70.2063 C81.2048,69.3633 80.3408,68.4193 79.2568,67.3373 C80.8908,67.0733 82.3448,66.8933 83.7678,66.5743 C84.2188,66.4733 84.7398,66.0873 84.9678,65.6843 C85.6768,64.4253 86.2628,63.0963 86.9838,61.6143 C87.6838,63.0153 88.3538,64.2353 88.9068,65.5073 C89.2358,66.2653 89.7018,66.6083 90.5148,66.6933 C91.8688,66.8343 93.2118,67.0763 94.5908,67.2803 C93.5578,68.3843 92.6238,69.4603 91.5998,70.4453 C91.0748,70.9513 90.9138,71.3973 91.0778,72.1223 C91.3828,73.4803 91.5528,74.8683 91.8208,76.4923"/>
        <path id="Fill-7" d="M90.1479,19.0265 C89.3729,19.6965 88.9129,20.2215 88.3409,20.5605 C87.1069,21.2915 87.0979,22.3265 87.3999,23.5215 C87.5439,24.0915 87.5969,24.6845 87.7409,25.5715 C86.8169,25.1125 86.0889,24.8215 85.4399,24.4095 C84.6379,23.9015 83.9219,23.8465 83.1109,24.3905 C82.4839,24.8105 81.7789,25.1135 80.8269,25.6185 C80.9749,24.5315 81.0109,23.7005 81.2169,22.9145 C81.4429,22.0535 81.2079,21.4665 80.5509,20.9125 C79.9069,20.3675 79.3409,19.7285 78.6019,18.9915 C79.9889,18.7605 81.4369,18.9045 82.3229,18.2665 C83.2229,17.6185 83.5689,16.2005 84.2739,14.9075 C84.7119,15.7535 85.1539,16.4585 85.4489,17.2205 C85.7779,18.0695 86.2719,18.5165 87.2149,18.5665 C88.0479,18.6095 88.8729,18.8185 90.1479,19.0265"/>
        <path id="Fill-9" d="M151.3706,14.5905 C152.0116,17.7965 153.7336,19.2015 156.7906,18.7685 C156.8376,18.9325 156.8846,19.0975 156.9316,19.2625 C156.3886,19.6995 155.8716,20.1735 155.2976,20.5655 C154.1596,21.3415 154.0486,22.3625 154.4086,23.5835 C154.5876,24.1895 154.6176,24.8395 154.7166,25.4765 C154.6006,25.4855 154.5046,25.5225 154.4616,25.4905 C152.2926,23.8625 150.1126,23.5485 147.9056,25.7845 C147.8686,25.6595 147.8316,25.5355 147.7956,25.4105 C147.9656,24.2005 148.5186,22.8725 148.1946,21.8135 C147.8846,20.7945 146.6646,20.0535 145.6666,19.0045 C146.6466,18.8295 147.4796,18.5895 148.3206,18.5555 C149.2366,18.5195 149.6846,18.0765 150.0136,17.2945 C150.3396,16.5145 150.7666,15.7775 151.3706,14.5905"/>
        <path id="Fill-11" d="M154.0864,38.5905 C154.5784,37.5045 154.2644,36.3415 152.8354,35.3815 C154.4904,35.3765 155.5164,34.6865 155.9144,32.8325 C156.6324,34.3375 157.1754,35.7005 159.1464,35.2245 C158.0114,36.3745 157.1874,37.4165 157.8564,38.5905 L154.0864,38.5905 Z"/>
        <path id="Fill-13" d="M76.021,51.1642 C77.625,51.1262 78.64,50.4702 79.11,48.8662 C79.669,50.3722 80.631,51.1532 82.26,51.1502 C80.876,52.0872 80.582,53.2672 81.086,54.8022 C79.778,53.9082 78.57,53.7142 77.247,54.8142 C77.608,53.3052 77.515,52.0612 76.021,51.1642"/>
        <path id="Fill-15" d="M0.6562,84.7028 C0.9872,84.3718 1.3822,84.2068 1.8402,84.2068 L9.7792,84.2068 C11.1012,84.2068 12.3482,84.4548 13.5192,84.9508 C14.6892,85.4468 15.7142,86.1338 16.5922,87.0118 C17.4702,87.8898 18.1572,88.9148 18.6532,90.0848 C19.1492,91.2558 19.3972,92.5028 19.3972,93.8248 C19.3972,95.1488 19.1492,96.3898 18.6532,97.5468 C18.1572,98.7048 17.4822,99.7168 16.6302,100.5808 C15.7772,101.4468 14.7722,102.1338 13.6142,102.6418 C12.4562,103.1518 11.2162,103.4188 9.8932,103.4438 L9.7792,103.4438 C9.3212,103.4438 8.9512,103.2788 8.6722,102.9478 C8.3912,102.6168 8.2522,102.2228 8.2522,101.7648 L8.2522,97.0318 C8.2522,96.5738 8.3912,96.2048 8.6722,95.9248 C8.9512,95.6448 9.3212,95.5048 9.7792,95.5048 C10.6952,95.5048 11.4582,95.1808 12.0692,94.5318 C12.6792,93.8828 12.9852,93.1388 12.9852,92.2988 C12.9852,91.3828 12.6792,90.6198 12.0692,90.0088 C11.4582,89.3978 10.6952,89.0928 9.7792,89.0928 C9.3712,89.0928 8.9772,89.1688 8.5952,89.3218 C8.2142,89.4738 7.8762,89.6908 7.5842,89.9708 C7.2912,90.2508 7.0552,90.5808 6.8782,90.9628 C6.6992,91.3448 6.5972,91.7518 6.5732,92.1838 L6.5732,114.5898 C6.5732,115.0478 6.4322,115.4418 6.1532,115.7728 C5.8722,116.1028 5.5042,116.2688 5.0462,116.2688 L1.8402,116.2688 C1.3822,116.2688 0.9872,116.1028 0.6562,115.7728 C0.3252,115.4418 0.1602,115.0478 0.1602,114.5898 L0.1602,85.8858 C0.1602,85.4278 0.3252,85.0338 0.6562,84.7028"/>
        <path id="Fill-17" fill-rule="nonzero" d="M35.5244,84.9508 C36.6824,85.4468 37.7004,86.1338 38.5784,87.0118 C39.4554,87.8898 40.1554,88.9148 40.6774,90.0848 C41.1984,91.2558 41.4594,92.5028 41.4594,93.8248 C41.4594,95.1748 41.1984,96.4278 40.6774,97.5848 C40.1554,98.7428 39.4554,99.7608 38.5784,100.6388 C37.7004,101.5158 36.6824,102.2028 35.5244,102.6998 C34.3664,103.1958 33.1384,103.4438 31.8404,103.4438 C30.4924,103.4438 29.2384,103.1958 28.0814,102.6998 C26.9234,102.2028 25.9054,101.5158 25.0274,100.6388 C24.1494,99.7608 23.4634,98.7428 22.9664,97.5848 C22.4704,96.4278 22.2224,95.1748 22.2224,93.8248 C22.2224,92.5028 22.4704,91.2558 22.9664,90.0848 C23.4634,88.9148 24.1494,87.8898 25.0274,87.0118 C25.9054,86.1338 26.9234,85.4468 28.0814,84.9508 C29.2384,84.4548 30.4924,84.2068 31.8404,84.2068 C33.1384,84.2068 34.3664,84.4548 35.5244,84.9508 M34.0734,94.4358 C34.7224,93.8248 35.0474,93.0618 35.0474,92.1458 C35.0474,91.7388 34.9584,91.3388 34.7804,90.9438 C34.6014,90.5498 34.3664,90.2058 34.0734,89.9128 C33.7814,89.6208 33.4374,89.3848 33.0434,89.2068 C32.6484,89.0288 32.2474,88.9398 31.8404,88.9398 C30.9244,88.9398 30.1614,89.2638 29.5504,89.9128 C28.9394,90.5618 28.6344,91.3058 28.6344,92.1458 C28.6344,93.0618 28.9394,93.8248 29.5504,94.4358 C30.1614,95.0468 30.9244,95.3518 31.8404,95.3518 C32.6804,95.3518 33.4244,95.0468 34.0734,94.4358"/>
        <path id="Fill-19" d="M44.5508,93.5201 L44.5508,92.7181 L44.5508,90.8101 L44.5508,87.2981 L44.5508,81.5731 L44.5508,73.0991 C44.5508,72.6411 44.7098,72.2471 45.0278,71.9161 C45.3458,71.5851 45.6958,71.4201 46.0778,71.4201 L49.3218,71.4201 C49.7798,71.4201 50.1738,71.5851 50.5048,71.9161 C50.8358,72.2471 51.0018,72.6411 51.0018,73.0991 L51.0018,92.7561 C51.1288,93.4951 51.4848,94.1301 52.0698,94.6651 C52.6548,95.1991 53.3548,95.4661 54.1698,95.4661 C54.9578,95.4661 55.4868,95.6061 55.7538,95.8861 C56.0208,96.1671 56.1548,96.5351 56.1548,96.9931 L56.1548,101.7261 C56.1548,102.1841 55.9758,102.5791 55.6198,102.9101 C55.2628,103.2401 54.7798,103.4061 54.1698,103.4061 C52.8208,103.4061 51.5678,103.1581 50.4098,102.6611 C49.2518,102.1651 48.2338,101.4781 47.3558,100.6001 C46.4778,99.7221 45.7908,98.7051 45.2948,97.5471 C44.7988,96.3891 44.5508,95.1361 44.5508,93.7871 L44.5508,93.5201 Z"/>
        <path id="Fill-21" fill-rule="nonzero" d="M74.3989,95.9244 C74.7299,96.2044 74.8949,96.5734 74.8949,97.0314 L74.8949,101.7644 C74.8949,102.2224 74.7299,102.6174 74.3989,102.9474 C74.0679,103.2784 73.6739,103.4434 73.2159,103.4434 L68.4829,103.4434 C67.1339,103.4434 65.8809,103.1954 64.7229,102.6994 C63.5649,102.2034 62.5469,101.5164 61.6689,100.6384 C60.7919,99.7604 60.1049,98.7434 59.6079,97.5854 C59.1119,96.4274 58.8639,95.1744 58.8639,93.8254 C58.8639,92.5024 59.1119,91.2554 59.6079,90.0844 C60.1049,88.9144 60.7919,87.8894 61.6689,87.0114 C62.5469,86.1334 63.5649,85.4464 64.7229,84.9504 C65.8809,84.4544 67.1339,84.2064 68.4829,84.2064 L71.6889,84.2064 C72.0959,84.2064 72.4969,84.3154 72.8919,84.5304 C73.2859,84.7474 73.6289,85.0334 73.9219,85.3894 C74.2139,85.7464 74.4499,86.1664 74.6279,86.6494 C74.8059,87.1324 74.8949,87.6414 74.8949,88.1764 C74.8949,89.0924 74.6909,89.9004 74.2849,90.5994 C73.8769,91.2994 73.3689,91.7644 72.7579,91.9934 L66.1929,94.5884 C66.4979,94.8174 66.8409,95.0274 67.2229,95.2184 C67.6049,95.4094 68.0249,95.5044 68.4829,95.5044 L73.2159,95.5044 C73.6739,95.5044 74.0679,95.6444 74.3989,95.9244 M66.1929,90.0084 C65.5819,90.6194 65.2759,91.3824 65.2759,92.2984 C65.2759,92.4514 65.2829,92.6034 65.2949,92.7564 C65.3079,92.9094 65.3529,93.0624 65.4289,93.2144 L69.7039,91.3824 C70.0349,91.2804 70.2259,91.0964 70.2769,90.8284 C70.3279,90.5614 70.2769,90.2944 70.1239,90.0274 C69.9709,89.7604 69.7419,89.5314 69.4369,89.3404 C69.1319,89.1494 68.8129,89.0664 68.4829,89.0924 C67.5669,89.0924 66.8029,89.3974 66.1929,90.0084"/>
        <path id="Fill-23" d="M88.9033,84.7028 C89.2343,84.3718 89.6293,84.2068 90.0873,84.2068 L98.0263,84.2068 C99.3483,84.2068 100.5953,84.4548 101.7663,84.9508 C102.9363,85.4468 103.9613,86.1338 104.8393,87.0118 C105.7173,87.8898 106.4043,88.9148 106.9013,90.0848 C107.3973,91.2558 107.6453,92.5028 107.6453,93.8248 C107.6453,95.1488 107.3973,96.3898 106.9013,97.5468 C106.4043,98.7048 105.7303,99.7168 104.8773,100.5808 C104.0243,101.4468 103.0193,102.1338 101.8613,102.6418 C100.7033,103.1518 99.4633,103.4188 98.1403,103.4438 L98.0263,103.4438 C97.5683,103.4438 97.1983,103.2788 96.9193,102.9478 C96.6383,102.6168 96.4993,102.2228 96.4993,101.7648 L96.4993,97.0318 C96.4993,96.5738 96.6383,96.2048 96.9193,95.9248 C97.1983,95.6448 97.5683,95.5048 98.0263,95.5048 C98.9423,95.5048 99.7053,95.1808 100.3163,94.5318 C100.9263,93.8828 101.2323,93.1388 101.2323,92.2988 C101.2323,91.3828 100.9263,90.6198 100.3163,90.0088 C99.7053,89.3978 98.9423,89.0928 98.0263,89.0928 C97.6183,89.0928 97.2243,89.1688 96.8423,89.3218 C96.4613,89.4738 96.1233,89.6908 95.8313,89.9708 C95.5383,90.2508 95.3023,90.5808 95.1253,90.9628 C94.9463,91.3448 94.8443,91.7518 94.8203,92.1838 L94.8203,114.5898 C94.8203,115.0478 94.6793,115.4418 94.4003,115.7728 C94.1193,116.1028 93.7513,116.2688 93.2933,116.2688 L90.0873,116.2688 C89.6293,116.2688 89.2343,116.1028 88.9033,115.7728 C88.5723,115.4418 88.4073,115.0478 88.4073,114.5898 L88.4073,85.8858 C88.4073,85.4278 88.5723,85.0338 88.9033,84.7028"/>
        <path id="Fill-25" fill-rule="nonzero" d="M123.771,84.9508 C124.928,85.4468 125.947,86.1338 126.825,87.0118 C127.703,87.8898 128.402,88.9148 128.923,90.0848 C129.445,91.2558 129.707,92.5028 129.707,93.8248 C129.707,95.1748 129.445,96.4278 128.923,97.5848 C128.402,98.7428 127.703,99.7608 126.825,100.6388 C125.947,101.5158 124.928,102.2028 123.771,102.6998 C122.613,103.1958 121.385,103.4438 120.087,103.4438 C118.739,103.4438 117.486,103.1958 116.328,102.6998 C115.169,102.2028 114.152,101.5158 113.274,100.6388 C112.396,99.7608 111.709,98.7428 111.213,97.5848 C110.717,96.4278 110.469,95.1748 110.469,93.8248 C110.469,92.5028 110.717,91.2558 111.213,90.0848 C111.709,88.9148 112.396,87.8898 113.274,87.0118 C114.152,86.1338 115.169,85.4468 116.328,84.9508 C117.486,84.4548 118.739,84.2068 120.087,84.2068 C121.385,84.2068 122.613,84.4548 123.771,84.9508 M122.321,94.4358 C122.969,93.8248 123.293,93.0618 123.293,92.1458 C123.293,91.7388 123.205,91.3388 123.027,90.9438 C122.848,90.5498 122.613,90.2058 122.321,89.9128 C122.028,89.6208 121.684,89.3848 121.289,89.2068 C120.895,89.0288 120.495,88.9398 120.087,88.9398 C119.171,88.9398 118.408,89.2638 117.797,89.9128 C117.187,90.5618 116.881,91.3058 116.881,92.1458 C116.881,93.0618 117.187,93.8248 117.797,94.4358 C118.408,95.0468 119.171,95.3518 120.087,95.3518 C120.927,95.3518 121.671,95.0468 122.321,94.4358"/>
        <path id="Fill-27" d="M144.3247,84.2067 C145.6477,84.2067 146.8947,84.4547 148.0657,84.9507 C149.2357,85.4467 150.2607,86.1337 151.1377,87.0117 C152.0157,87.8897 152.7027,88.9147 153.1997,90.0847 C153.6957,91.2557 153.9437,92.5027 153.9437,93.8257 C153.9437,95.1747 153.6957,96.4277 153.1997,97.5847 C152.7027,98.7437 152.0157,99.7607 151.1377,100.6387 C150.2607,101.5167 149.2357,102.2037 148.0657,102.6997 C146.8947,103.1957 145.6477,103.4437 144.3247,103.4437 C143.8667,103.4437 143.4717,103.2787 143.1417,102.9477 C142.8107,102.6177 142.6447,102.2227 142.6447,101.7647 L142.6447,97.0317 C142.6447,96.5737 142.8107,96.2047 143.1417,95.9247 C143.4717,95.6447 143.8667,95.5047 144.3247,95.5047 C144.7577,95.4797 145.1707,95.3777 145.5647,95.1997 C145.9597,95.0217 146.3037,94.7867 146.5957,94.4937 C146.8877,94.2007 147.1177,93.8637 147.2827,93.4817 C147.4477,93.0997 147.5307,92.7057 147.5307,92.2987 C147.5307,91.3827 147.2887,90.6197 146.8057,90.0087 C146.3217,89.3977 145.6607,89.0927 144.8207,89.0927 C144.6937,89.0927 144.5787,89.1177 144.4777,89.1687 C144.3757,89.2197 144.2417,89.3727 144.0767,89.6267 C143.9107,89.8817 143.6887,90.2757 143.4087,90.8097 C143.1287,91.3447 142.7467,92.1077 142.2637,93.0997 C141.7797,94.0927 141.1767,95.3397 140.4507,96.8407 C139.7247,98.3427 138.8417,100.1877 137.7987,102.3747 C137.5947,102.7827 137.2687,103.0997 136.8247,103.3297 C136.3797,103.5587 135.9397,103.5837 135.5077,103.4057 L132.3017,103.4817 C131.8937,103.2787 131.6337,102.9737 131.5187,102.5657 C131.4047,102.1597 131.4487,101.7397 131.6527,101.3067 L138.8667,85.6957 C139.2997,84.8557 140.0127,84.3727 141.0047,84.2447 L144.3247,84.2067 Z"/>
        <path id="Fill-29" fill-rule="nonzero" d="M156.8051,76.2672 C156.8051,75.8092 156.9701,75.4152 157.3011,75.0842 C157.6321,74.7532 158.0271,74.5882 158.4851,74.5882 L161.6911,74.5882 C162.0731,74.5882 162.4221,74.7532 162.7411,75.0842 C163.0591,75.4152 163.2181,75.8092 163.2181,76.2672 L163.2181,79.4742 C163.2181,79.8552 163.0591,80.2052 162.7411,80.5232 C162.4221,80.8422 162.0731,81.0002 161.6911,81.0002 L158.4851,81.0002 C158.0271,81.0002 157.6321,80.8422 157.3011,80.5232 C156.9701,80.2052 156.8051,79.8552 156.8051,79.4742 L156.8051,76.2672 Z M163.2181,101.7642 C163.2181,102.2232 163.0591,102.6172 162.7411,102.9482 C162.4221,103.2792 162.0731,103.4442 161.6911,103.4442 L158.4851,103.4442 C158.0271,103.4442 157.6321,103.2792 157.3011,102.9482 C156.9701,102.6172 156.8051,102.2232 156.8051,101.7642 L156.8051,85.8862 C156.8051,85.4282 156.9701,85.0342 157.3011,84.7032 C157.6321,84.3722 158.0271,84.2072 158.4851,84.2072 L161.6911,84.2072 C162.0731,84.2072 162.4221,84.3722 162.7411,84.7032 C163.0591,85.0342 163.2181,85.4282 163.2181,85.8862 L163.2181,101.7642 Z"/>
        <path id="Fill-31" d="M166.9966,93.5201 L166.9966,92.7181 L166.9966,90.8101 L166.9966,87.2981 L166.9966,81.5731 L166.9966,73.0991 C166.9966,72.6411 167.1556,72.2471 167.4736,71.9161 C167.7916,71.5851 168.1416,71.4201 168.5236,71.4201 L171.7676,71.4201 C172.2256,71.4201 172.6206,71.5851 172.9516,71.9161 C173.2816,72.2471 173.4476,72.6411 173.4476,73.0991 L173.4476,79.2831 L178.0656,79.2831 C178.5236,79.2831 178.9186,79.4481 179.2496,79.7791 C179.5796,80.1101 179.7456,80.5041 179.7456,80.9621 L179.7456,82.4891 C179.7456,82.9471 179.5796,83.3421 179.2496,83.6721 C178.9186,84.0031 178.5236,84.1681 178.0656,84.1681 L173.4476,84.1681 L173.4476,92.7561 C173.5746,93.4951 173.9306,94.1301 174.5166,94.6651 C175.1006,95.1991 175.8006,95.4661 176.6156,95.4661 L178.2566,95.4661 C178.8916,95.4661 179.3306,95.6061 179.5736,95.8861 C179.8146,96.1671 179.9356,96.5351 179.9356,96.9931 L179.9356,101.7261 C179.9356,102.1841 179.7696,102.5791 179.4396,102.9101 C179.1086,103.2401 178.7146,103.4061 178.2566,103.4061 L176.6156,103.4061 C175.2666,103.4061 174.0136,103.1581 172.8556,102.6611 C171.6976,102.1651 170.6806,101.4781 169.8026,100.6001 C168.9246,99.7221 168.2366,98.7051 167.7406,97.5471 C167.2446,96.3891 166.9966,95.1361 166.9966,93.7871 L166.9966,93.5201 Z"/>
        <path id="Fill-33" fill-rule="nonzero" d="M183.1797,76.2672 C183.1797,75.8092 183.3447,75.4152 183.6757,75.0842 C184.0067,74.7532 184.4027,74.5882 184.8607,74.5882 L188.0667,74.5882 C188.4487,74.5882 188.7967,74.7532 189.1167,75.0842 C189.4347,75.4152 189.5927,75.8092 189.5927,76.2672 L189.5927,79.4742 C189.5927,79.8552 189.4347,80.2052 189.1167,80.5232 C188.7967,80.8422 188.4487,81.0002 188.0667,81.0002 L184.8607,81.0002 C184.4027,81.0002 184.0067,80.8422 183.6757,80.5232 C183.3447,80.2052 183.1797,79.8552 183.1797,79.4742 L183.1797,76.2672 Z M189.5927,101.7642 C189.5927,102.2232 189.4347,102.6172 189.1167,102.9482 C188.7967,103.2792 188.4487,103.4442 188.0667,103.4442 L184.8607,103.4442 C184.4027,103.4442 184.0067,103.2792 183.6757,102.9482 C183.3447,102.6172 183.1797,102.2232 183.1797,101.7642 L183.1797,85.8862 C183.1797,85.4282 183.3447,85.0342 183.6757,84.7032 C184.0067,84.3722 184.4027,84.2072 184.8607,84.2072 L188.0667,84.2072 C188.4487,84.2072 188.7967,84.3722 189.1167,84.7032 C189.4347,85.0342 189.5927,85.4282 189.5927,85.8862 L189.5927,101.7642 Z"/>
        <path id="Fill-35" fill-rule="nonzero" d="M205.9853,84.9508 C207.1423,85.4468 208.1623,86.1338 209.0403,87.0118 C209.9183,87.8898 210.6163,88.9148 211.1373,90.0848 C211.6603,91.2558 211.9223,92.5028 211.9223,93.8248 C211.9223,95.1748 211.6603,96.4278 211.1373,97.5848 C210.6163,98.7428 209.9183,99.7608 209.0403,100.6388 C208.1623,101.5158 207.1423,102.2028 205.9853,102.6998 C204.8283,103.1958 203.5993,103.4438 202.3013,103.4438 C200.9543,103.4438 199.7013,103.1958 198.5433,102.6998 C197.3833,102.2028 196.3673,101.5158 195.4883,100.6388 C194.6103,99.7608 193.9243,98.7428 193.4273,97.5848 C192.9313,96.4278 192.6833,95.1748 192.6833,93.8248 C192.6833,92.5028 192.9313,91.2558 193.4273,90.0848 C193.9243,88.9148 194.6103,87.8898 195.4883,87.0118 C196.3673,86.1338 197.3833,85.4468 198.5433,84.9508 C199.7013,84.4548 200.9543,84.2068 202.3013,84.2068 C203.5993,84.2068 204.8283,84.4548 205.9853,84.9508 M204.5363,94.4358 C205.1833,93.8248 205.5083,93.0618 205.5083,92.1458 C205.5083,91.7388 205.4203,91.3388 205.2413,90.9438 C205.0623,90.5498 204.8283,90.2058 204.5363,89.9128 C204.2433,89.6208 203.8983,89.3848 203.5053,89.2068 C203.1093,89.0288 202.7103,88.9398 202.3013,88.9398 C201.3853,88.9398 200.6233,89.2638 200.0113,89.9128 C199.4013,90.5618 199.0953,91.3058 199.0953,92.1458 C199.0953,93.0618 199.4013,93.8248 200.0113,94.4358 C200.6233,95.0468 201.3853,95.3518 202.3013,95.3518 C203.1413,95.3518 203.8853,95.0468 204.5363,94.4358"/>
        <path id="Fill-37" d="M234.2109,101.7643 C234.2109,102.2223 234.0459,102.6173 233.7159,102.9483 C233.3849,103.2793 232.9899,103.4443 232.5319,103.4443 L229.3249,103.4443 C228.8669,103.4443 228.4979,103.2793 228.2199,102.9483 C227.9399,102.6173 227.7999,102.2223 227.7999,101.7643 L227.7999,92.2983 C227.7999,91.3823 227.4759,90.6193 226.8249,90.0083 C226.1779,89.3973 225.4339,89.0923 224.5939,89.0923 C223.7009,89.0923 222.9509,89.3853 222.3409,89.9703 C221.7309,90.5563 221.4109,91.2933 221.3879,92.1843 L221.3879,101.7643 C221.3879,102.2223 221.2219,102.6173 220.8919,102.9483 C220.5609,103.2793 220.1649,103.4443 219.7069,103.4443 L216.5009,103.4443 C216.0429,103.4443 215.6749,103.2793 215.3949,102.9483 C215.1129,102.6173 214.9749,102.2223 214.9749,101.7643 L214.9749,85.7333 C214.9749,85.3513 215.1129,85.0023 215.3949,84.6833 C215.6749,84.3663 216.0429,84.2063 216.5009,84.2063 L224.5939,84.2063 C225.8919,84.2063 227.1179,84.4613 228.2759,84.9703 C229.4349,85.4793 230.4509,86.1793 231.3289,87.0693 C232.2069,87.9603 232.9069,88.9963 233.4299,90.1803 C233.9499,91.3633 234.2109,92.6163 234.2109,93.9393 L234.2109,101.7643 Z"/>
      </g>
    </g>
  </g>
</svg>
